<?xml version="1.0" encoding="UTF-8" standalone="no"?>
<!-- Created with Inkscape (http://www.inkscape.org/) -->

<svg
   version="1.1"
   id="svg1"
   width="900"
   height="900"
   viewBox="0 0 900 900"
   xml:space="preserve"
   sodipodi:docname="hammerfy-icon-light.svg"
   inkscape:version="1.4.2 (f4327f4, 2025-05-13)"
   inkscape:export-filename="hammerfy-icon-light.png"
   inkscape:export-xdpi="106.66666"
   inkscape:export-ydpi="106.66666"
   xmlns:inkscape="http://www.inkscape.org/namespaces/inkscape"
   xmlns:sodipodi="http://sodipodi.sourceforge.net/DTD/sodipodi-0.dtd"
   xmlns:xlink="http://www.w3.org/1999/xlink"
   xmlns="http://www.w3.org/2000/svg"
   xmlns:svg="http://www.w3.org/2000/svg"><sodipodi:namedview
     id="namedview1"
     pagecolor="#ffffff"
     bordercolor="#000000"
     borderopacity="0.25"
     inkscape:showpageshadow="2"
     inkscape:pageopacity="0.0"
     inkscape:pagecheckerboard="0"
     inkscape:deskcolor="#d1d1d1"
     inkscape:zoom="0.61259591"
     inkscape:cx="265.26459"
     inkscape:cy="510.9404"
     inkscape:window-width="958"
     inkscape:window-height="1000"
     inkscape:window-x="-7"
     inkscape:window-y="0"
     inkscape:window-maximized="0"
     inkscape:current-layer="svg1" /><defs
     id="defs1"><linearGradient
       id="linearGradient31"><stop
         style="stop-color:#ffffff;stop-opacity:1;"
         offset="0"
         id="stop32" /><stop
         style="stop-color:#ffffff;stop-opacity:0;"
         offset="1"
         id="stop33" /></linearGradient><linearGradient
       id="linearGradient22"><stop
         style="stop-color:#4e37d5;stop-opacity:1;"
         offset="0"
         id="stop22" /><stop
         style="stop-color:#4e37d5;stop-opacity:0;"
         offset="1"
         id="stop23" /></linearGradient><pattern
       xlink:href="#pattern25-8"
       preserveAspectRatio="xMidYMid"
       id="pattern21"
       patternTransform="matrix(0.6,0,0,0.6,946.66407,457.29883)" /><clipPath
       clipPathUnits="userSpaceOnUse"
       id="clipPath25"><rect
         style="fill:#ff0000;stroke:none;stroke-width:3;stroke-linecap:square;stroke-linejoin:miter;paint-order:stroke markers fill;stop-color:#000000"
         id="rect25-8"
         width="78"
         height="45.033199"
         x="763.61322"
         y="452.82422" /></clipPath><pattern
       patternUnits="userSpaceOnUse"
       width="78"
       height="45.033199"
       patternTransform="translate(946.66407,457.29883) scale(0.6)"
       preserveAspectRatio="xMidYMid"
       id="pattern25-8"
       style="fill:#000000"><g
         id="g13"
         transform="translate(-763.61322,-452.82422)"
         clip-path="url(#clipPath25)"><path
           id="path11-0"
           style="color:#000000;stroke-width:3;stroke-linecap:square;paint-order:stroke markers fill"
           d="m 805.62688,448.21094 -12.5,7.21679 v 14.43555 l -12.5,7.2168 v 14.43359 l 12.5,7.2168 12.5,-7.2168 12.5,7.2168 12.5,-7.2168 v -14.43359 l -12.5,-7.2168 v -14.43555 z m 0,9.22265 4.51368,2.60547 v 14.4336 l 12.5,7.21679 v 5.21289 l -4.51368,2.60547 -12.5,-7.21679 -12.5,7.21679 -4.51367,-2.60547 v -5.21289 l 12.5,-7.21679 v -14.4336 z m 0,1.73243 -3.01367,1.73828 v 14.43359 l -12.5,7.21875 v 3.47852 l 3.01367,1.74023 12.5,-7.2168 12.5,7.2168 3.01563,-1.74023 v -3.47852 l -12.50195,-7.21875 V 460.9043 Z" /><path
           id="path20-8"
           style="color:#000000;stroke-width:3;stroke-linecap:square;paint-order:stroke markers fill"
           d="m 805.62688,403.17774 -12.5,7.2168 v 14.43554 l -12.5,7.2168 v 14.43359 l 12.5,7.2168 12.5,-7.2168 12.5,7.2168 12.5,-7.2168 v -14.43359 l -12.5,-7.2168 v -14.43554 z m 0,9.22265 4.51368,2.60547 v 14.4336 l 12.5,7.21679 v 5.21289 l -4.51368,2.60547 -12.5,-7.21679 -12.5,7.21679 -4.51367,-2.60547 v -5.21289 l 12.5,-7.21679 v -14.4336 z m 0,1.73243 -3.01367,1.73828 v 14.43359 l -12.5,7.21875 v 3.47852 l 3.01367,1.74023 12.5,-7.2168 12.5,7.2168 3.01563,-1.74023 v -3.47852 l -12.50195,-7.21875 V 415.8711 Z m -39,56.59765 -12.5,7.2168 v 14.43554 l -12.5,7.2168 v 14.43359 l 12.5,7.2168 12.5,-7.2168 12.5,7.2168 12.5,-7.2168 v -14.43359 l -12.5,-7.2168 v -14.43554 z m 0,9.22265 4.51368,2.60547 v 14.4336 l 12.5,7.21679 v 5.21289 l -4.51368,2.60547 -12.5,-7.21679 -12.5,7.21679 -4.51367,-2.60547 v -5.21289 l 12.5,-7.21679 v -14.4336 z m 0,1.73243 -3.01367,1.73828 v 14.43359 l -12.5,7.21875 v 3.47852 l 3.01367,1.74023 12.5,-7.2168 12.5,7.2168 3.01563,-1.74023 v -3.47852 l -12.50195,-7.21875 v -14.43359 z m 78,-10.95508 -12.5,7.2168 v 14.43554 l -12.5,7.2168 v 14.43359 l 12.5,7.2168 12.5,-7.2168 12.5,7.2168 12.5,-7.2168 v -14.43359 l -12.5,-7.2168 v -14.43554 z m 0,9.22265 4.51368,2.60547 v 14.4336 l 12.5,7.21679 v 5.21289 l -4.51368,2.60547 -12.5,-7.21679 -12.5,7.21679 -4.51367,-2.60547 v -5.21289 l 12.5,-7.21679 v -14.4336 z m 0,1.73243 -3.01367,1.73828 v 14.43359 l -12.5,7.21875 v 3.47852 l 3.01367,1.74023 12.5,-7.2168 12.5,7.2168 3.01563,-1.74023 v -3.47852 l -12.50195,-7.21875 v -14.43359 z" /><path
           id="path19"
           style="color:#000000;stroke-width:3;stroke-linecap:square;paint-order:stroke markers fill"
           d="m 766.62688,425.69727 -12.5,7.21679 v 14.43555 l -12.5,7.2168 V 469 l 12.5,7.2168 12.5,-7.2168 12.5,7.2168 12.5,-7.2168 v -14.43359 l -12.5,-7.2168 v -14.43555 z m 0,9.22265 4.51368,2.60547 v 14.4336 l 12.5,7.21679 v 5.21289 l -4.51368,2.60547 -12.5,-7.21679 -12.5,7.21679 -4.51367,-2.60547 v -5.21289 l 12.5,-7.21679 v -14.4336 z m 0,1.73243 -3.01367,1.73828 v 14.43359 l -12.5,7.21875 v 3.47852 l 3.01367,1.74023 12.5,-7.2168 12.5,7.2168 3.01563,-1.74023 v -3.47852 l -12.50195,-7.21875 v -14.43359 z m 78,-10.95508 -12.5,7.21679 v 14.43555 l -12.5,7.2168 V 469 l 12.5,7.2168 12.5,-7.2168 12.5,7.2168 12.5,-7.2168 v -14.43359 l -12.5,-7.2168 v -14.43555 z m 0,9.22265 4.51368,2.60547 v 14.4336 l 12.5,7.21679 v 5.21289 l -4.51368,2.60547 -12.5,-7.21679 -12.5,7.21679 -4.51367,-2.60547 v -5.21289 l 12.5,-7.21679 v -14.4336 z m 0,1.73243 -3.01367,1.73828 v 14.43359 l -12.5,7.21875 v 3.47852 l 3.01367,1.74023 12.5,-7.2168 12.5,7.2168 3.01563,-1.74023 v -3.47852 l -12.50195,-7.21875 v -14.43359 z m -39,56.59765 -12.5,7.21679 v 14.43555 l -12.5,7.2168 v 14.43359 l 12.5,7.2168 12.5,-7.2168 12.5,7.2168 12.5,-7.2168 v -14.43359 l -12.5,-7.2168 v -14.43555 z m 0,9.22265 4.51368,2.60547 v 14.4336 l 12.5,7.21679 v 5.21289 l -4.51368,2.60547 -12.5,-7.21679 -12.5,7.21679 -4.51367,-2.60547 v -5.21289 l 12.5,-7.21679 v -14.4336 z m 0,1.73243 -3.01367,1.73828 v 14.43359 l -12.5,7.21875 v 3.47852 l 3.01367,1.74023 12.5,-7.2168 12.5,7.2168 3.01563,-1.74023 v -3.47852 l -12.50195,-7.21875 v -14.43359 z" /></g></pattern><linearGradient
       id="swatch15"><stop
         style="stop-color:#7c6be0;stop-opacity:1;"
         offset="0"
         id="stop15" /></linearGradient><linearGradient
       id="linearGradient7"><stop
         style="stop-color:#ffffff;stop-opacity:1;"
         offset="0"
         id="stop8" /><stop
         style="stop-color:#e0e0e0;stop-opacity:0;"
         offset="1"
         id="stop9" /></linearGradient><radialGradient
       xlink:href="#linearGradient7"
       id="radialGradient9"
       cx="4037.3657"
       cy="472.92896"
       fx="4037.3657"
       fy="472.92896"
       r="1861.2389"
       gradientTransform="matrix(1,0,0,0.19174934,0,382.24514)"
       gradientUnits="userSpaceOnUse" /><filter
       style="color-interpolation-filters:sRGB"
       id="filter21"
       x="-0.0071410069"
       y="-0.037241364"
       width="1.0142819"
       height="1.0744827"><feGaussianBlur
         stdDeviation="7.0980168"
         id="feGaussianBlur21" /></filter><linearGradient
       xlink:href="#linearGradient22"
       id="linearGradient23"
       x1="2160.3342"
       y1="469.51389"
       x2="5948.5488"
       y2="469.51389"
       gradientUnits="userSpaceOnUse" /><linearGradient
       xlink:href="#linearGradient31"
       id="linearGradient33"
       x1="2493.4756"
       y1="-544.18958"
       x2="5615.4077"
       y2="1483.2172"
       gradientUnits="userSpaceOnUse"
       spreadMethod="reflect" /><filter
       style="color-interpolation-filters:sRGB"
       id="filter33"
       x="-0.032420901"
       y="-0.021206815"
       width="1.0648418"
       height="1.0424136"><feGaussianBlur
         stdDeviation="1.7991282"
         id="feGaussianBlur33" /></filter><filter
       style="color-interpolation-filters:sRGB"
       id="filter1"
       inkscape:label="Brilho interno"
       x="-0.091669832"
       y="-0.061166287"
       width="1.1833397"
       height="1.1223326"><feGaussianBlur
         stdDeviation="20.97902097902098"
         id="feGaussianBlur1" /><feComposite
         id="feComposite1"
         operator="xor" /><feComposite
         id="feComposite2"
         operator="arithmetic"
         in="SourceGraphic"
         k1="2.3170731707317067" /></filter><filter
       inkscape:collect="always"
       style="color-interpolation-filters:sRGB"
       id="filter7-4"
       x="-0.09493254"
       y="-0.063343315"
       width="1.1898651"
       height="1.1266866"><feGaussianBlur
         inkscape:collect="always"
         stdDeviation="12.407932"
         id="feGaussianBlur7-8" /></filter><filter
       style="color-interpolation-filters:sRGB"
       id="filter1-8"
       inkscape:label="Brilho interno"
       x="-0.091669832"
       y="-0.061166287"
       width="1.1833397"
       height="1.1223326"><feGaussianBlur
         stdDeviation="20.97902097902098"
         id="feGaussianBlur1-2" /><feComposite
         id="feComposite1-4"
         operator="xor" /><feComposite
         id="feComposite2-5"
         operator="arithmetic"
         in="SourceGraphic"
         k1="2.3170732"
         k2="0"
         k3="0"
         k4="0" /></filter></defs><g
     id="layer1-1"
     inkscape:label="Icon"
     style="display:inline"
     transform="matrix(0.96141302,0.00464785,-0.00464785,0.96141302,36.453488,3.2448164)"><path
       id="rect2-8-7"
       style="display:inline;mix-blend-mode:normal;fill:#4e37d5;fill-opacity:1;stroke:#4e37d5;stroke-width:44.72531225;stroke-linejoin:round;stroke-dasharray:none;stroke-opacity:1;paint-order:fill markers stroke;filter:url(#filter7-4)"
       d="m 178.49807,51.015623 c -11.49102,0 -20.74219,9.25118 -20.74219,20.742189 V 290.38867 c 0,11.49102 9.25117,20.74219 20.74219,20.74219 h 220.67968 v 293.95703 h -0.0801 c -5.76522,0 -10.40625,4.64103 -10.40625,10.40625 v 248.27344 c 0,5.76522 4.64103,10.4082 10.40625,10.4082 h 66.5664 c 5.76522,0 10.40625,-4.64298 10.40625,-10.4082 V 615.49414 c 0,-5.76522 -4.64103,-10.40625 -10.40625,-10.40625 h -0.0801 V 311.13086 h 220.67969 c 11.49102,0 20.74219,-9.25117 20.74219,-20.74219 V 71.757812 c 0,-11.49101 -9.25117,-20.742189 -20.74219,-20.742189 z"
       inkscape:label="blur" /><path
       id="rect2-8-1-1"
       style="display:inline;fill:#000000;fill-opacity:1;stroke:#000000;stroke-width:14;stroke-linejoin:round;stroke-dasharray:none;stroke-opacity:1;paint-order:fill markers stroke"
       d="m 178.49807,51.015601 c -11.49102,0 -20.74219,9.25118 -20.74219,20.74219 V 290.38865 c 0,11.49102 9.25117,20.74219 20.74219,20.74219 h 220.67968 v 293.95703 h -0.0801 c -5.76522,0 -10.40625,4.64103 -10.40625,10.40625 V 863.7676 c 0,5.7652 4.64103,10.4082 10.40625,10.4082 h 66.5664 c 5.76522,0 10.40625,-4.643 10.40625,-10.4082 V 615.49412 c 0,-5.76522 -4.64103,-10.40625 -10.40625,-10.40625 h -0.0801 V 311.13084 h 220.67969 c 11.49102,0 20.74219,-9.25117 20.74219,-20.74219 V 71.757791 c 0,-11.49101 -9.25117,-20.74219 -20.74219,-20.74219 z"
       inkscape:label="black border" /><path
       id="rect2-6-1"
       style="display:inline;fill:#2b1da3;fill-opacity:1;stroke:#360ebf;stroke-width:4;stroke-linejoin:round;stroke-dasharray:none;stroke-opacity:1;paint-order:fill markers stroke"
       d="m 178.49805,51.015622 c -11.49102,0 -20.74219,9.25118 -20.74219,20.74219 V 290.38867 c 0,11.49102 9.25117,20.74219 20.74219,20.74219 h 220.67968 v 293.95703 h -0.0801 c -5.76522,0 -10.40625,4.64103 -10.40625,10.40625 v 248.27344 c 0,5.76522 4.64103,10.4082 10.40625,10.4082 h 66.5664 c 5.76522,0 10.40625,-4.64298 10.40625,-10.4082 V 615.49414 c 0,-5.76522 -4.64103,-10.40625 -10.40625,-10.40625 h -0.0801 V 311.13086 h 220.67969 c 11.49102,0 20.74219,-9.25117 20.74219,-20.74219 V 71.757812 c 0,-11.49101 -9.25117,-20.74219 -20.74219,-20.74219 z"
       inkscape:label="color" /><path
       id="rect2-6-8-5"
       style="display:inline;fill:#8f74e8;fill-opacity:1;stroke:none;stroke-width:4;stroke-linejoin:round;stroke-dasharray:none;stroke-opacity:1;paint-order:fill markers stroke;filter:url(#filter1-8)"
       d="m 178.49805,51.015621 c -11.49102,0 -20.74219,9.25118 -20.74219,20.74219 V 290.38867 c 0,11.49102 9.25117,20.74219 20.74219,20.74219 h 220.67968 v 293.95703 h -0.0801 c -5.76522,0 -10.40625,4.64103 -10.40625,10.40625 v 248.27344 c 0,5.76522 4.64103,10.4082 10.40625,10.4082 h 66.5664 c 5.76522,0 10.40625,-4.64298 10.40625,-10.4082 V 615.49414 c 0,-5.76522 -4.64103,-10.40625 -10.40625,-10.40625 h -0.0801 V 311.13086 h 220.67969 c 11.49102,0 20.74219,-9.25117 20.74219,-20.74219 V 71.757811 c 0,-11.49101 -9.25117,-20.74219 -20.74219,-20.74219 z"
       inkscape:label="glow" /><path
       id="rect2-2"
       style="display:inline;fill:none;fill-opacity:1;stroke:#360ebf;stroke-width:4;stroke-linejoin:miter;stroke-dasharray:none;stroke-opacity:1;paint-order:normal"
       d="m 178.49805,51.015625 c -11.49102,0 -20.74219,9.251174 -20.74219,20.742187 V 290.38867 c 0,11.49102 9.25117,20.74219 20.74219,20.74219 h 220.67968 v 293.95703 h -0.0801 c -5.76522,0 -10.40625,4.64103 -10.40625,10.40625 v 248.27344 c 0,5.76522 4.64103,10.4082 10.40625,10.4082 h 66.5664 c 5.76522,0 10.40625,-4.64298 10.40625,-10.4082 V 615.49414 c 0,-5.76522 -4.64103,-10.40625 -10.40625,-10.40625 h -0.0801 V 311.13086 h 220.67969 c 11.49102,0 20.74219,-9.25117 20.74219,-20.74219 V 71.757812 c 0,-11.491013 -9.25117,-20.742187 -20.74219,-20.742187 z"
       inkscape:label="purple border" /></g></svg>
