<?xml version="1.0" encoding="UTF-8" standalone="no"?>
<!-- Created with Inkscape (http://www.inkscape.org/) -->

<svg
   version="1.1"
   id="svg1"
   width="4100"
   height="900"
   viewBox="0 0 4100 900"
   xml:space="preserve"
   sodipodi:docname="hammerfy-logo.svg"
   inkscape:version="1.4.2 (f4327f4, 2025-05-13)"
   inkscape:export-filename="hammerfy-logo.png"
   inkscape:export-xdpi="426.66666"
   inkscape:export-ydpi="426.66666"
   xmlns:inkscape="http://www.inkscape.org/namespaces/inkscape"
   xmlns:sodipodi="http://sodipodi.sourceforge.net/DTD/sodipodi-0.dtd"
   xmlns:xlink="http://www.w3.org/1999/xlink"
   xmlns="http://www.w3.org/2000/svg"
   xmlns:svg="http://www.w3.org/2000/svg"><sodipodi:namedview
     id="namedview1"
     pagecolor="#ffffff"
     bordercolor="#000000"
     borderopacity="0.25"
     inkscape:showpageshadow="2"
     inkscape:pageopacity="0.0"
     inkscape:pagecheckerboard="0"
     inkscape:deskcolor="#d1d1d1"
     inkscape:zoom="0.10829268"
     inkscape:cx="2954.955"
     inkscape:cy="1768.3559"
     inkscape:window-width="1920"
     inkscape:window-height="1009"
     inkscape:window-x="-8"
     inkscape:window-y="-8"
     inkscape:window-maximized="1"
     inkscape:current-layer="g2" /><defs
     id="defs1"><linearGradient
       id="linearGradient3"
       inkscape:collect="always"><stop
         style="stop-color:#ffffff;stop-opacity:1;"
         offset="0"
         id="stop3" /><stop
         style="stop-color:#ffffff;stop-opacity:0.53759396;"
         offset="1"
         id="stop4" /></linearGradient><linearGradient
       id="linearGradient31"><stop
         style="stop-color:#ffffff;stop-opacity:1;"
         offset="0"
         id="stop32" /><stop
         style="stop-color:#ffffff;stop-opacity:0;"
         offset="1"
         id="stop33" /></linearGradient><linearGradient
       id="linearGradient22"><stop
         style="stop-color:#4e37d5;stop-opacity:1;"
         offset="0"
         id="stop22" /><stop
         style="stop-color:#4e37d5;stop-opacity:0;"
         offset="1"
         id="stop23" /></linearGradient><pattern
       xlink:href="#pattern25-8"
       preserveAspectRatio="xMidYMid"
       id="pattern21"
       patternTransform="matrix(0.6,0,0,0.6,946.66407,457.29883)" /><clipPath
       clipPathUnits="userSpaceOnUse"
       id="clipPath25"><rect
         style="fill:#ff0000;stroke:none;stroke-width:3;stroke-linecap:square;stroke-linejoin:miter;paint-order:stroke markers fill;stop-color:#000000"
         id="rect25-8"
         width="78"
         height="45.033199"
         x="763.61322"
         y="452.82422" /></clipPath><pattern
       patternUnits="userSpaceOnUse"
       width="78"
       height="45.033199"
       patternTransform="translate(946.66407,457.29883) scale(0.6)"
       preserveAspectRatio="xMidYMid"
       id="pattern25-8"
       style="fill:#000000"><g
         id="g13"
         transform="translate(-763.61322,-452.82422)"
         clip-path="url(#clipPath25)"><path
           id="path11-0"
           style="color:#000000;stroke-width:3;stroke-linecap:square;paint-order:stroke markers fill"
           d="m 805.62688,448.21094 -12.5,7.21679 v 14.43555 l -12.5,7.2168 v 14.43359 l 12.5,7.2168 12.5,-7.2168 12.5,7.2168 12.5,-7.2168 v -14.43359 l -12.5,-7.2168 v -14.43555 z m 0,9.22265 4.51368,2.60547 v 14.4336 l 12.5,7.21679 v 5.21289 l -4.51368,2.60547 -12.5,-7.21679 -12.5,7.21679 -4.51367,-2.60547 v -5.21289 l 12.5,-7.21679 v -14.4336 z m 0,1.73243 -3.01367,1.73828 v 14.43359 l -12.5,7.21875 v 3.47852 l 3.01367,1.74023 12.5,-7.2168 12.5,7.2168 3.01563,-1.74023 v -3.47852 l -12.50195,-7.21875 V 460.9043 Z" /><path
           id="path20-8"
           style="color:#000000;stroke-width:3;stroke-linecap:square;paint-order:stroke markers fill"
           d="m 805.62688,403.17774 -12.5,7.2168 v 14.43554 l -12.5,7.2168 v 14.43359 l 12.5,7.2168 12.5,-7.2168 12.5,7.2168 12.5,-7.2168 v -14.43359 l -12.5,-7.2168 v -14.43554 z m 0,9.22265 4.51368,2.60547 v 14.4336 l 12.5,7.21679 v 5.21289 l -4.51368,2.60547 -12.5,-7.21679 -12.5,7.21679 -4.51367,-2.60547 v -5.21289 l 12.5,-7.21679 v -14.4336 z m 0,1.73243 -3.01367,1.73828 v 14.43359 l -12.5,7.21875 v 3.47852 l 3.01367,1.74023 12.5,-7.2168 12.5,7.2168 3.01563,-1.74023 v -3.47852 l -12.50195,-7.21875 V 415.8711 Z m -39,56.59765 -12.5,7.2168 v 14.43554 l -12.5,7.2168 v 14.43359 l 12.5,7.2168 12.5,-7.2168 12.5,7.2168 12.5,-7.2168 v -14.43359 l -12.5,-7.2168 v -14.43554 z m 0,9.22265 4.51368,2.60547 v 14.4336 l 12.5,7.21679 v 5.21289 l -4.51368,2.60547 -12.5,-7.21679 -12.5,7.21679 -4.51367,-2.60547 v -5.21289 l 12.5,-7.21679 v -14.4336 z m 0,1.73243 -3.01367,1.73828 v 14.43359 l -12.5,7.21875 v 3.47852 l 3.01367,1.74023 12.5,-7.2168 12.5,7.2168 3.01563,-1.74023 v -3.47852 l -12.50195,-7.21875 v -14.43359 z m 78,-10.95508 -12.5,7.2168 v 14.43554 l -12.5,7.2168 v 14.43359 l 12.5,7.2168 12.5,-7.2168 12.5,7.2168 12.5,-7.2168 v -14.43359 l -12.5,-7.2168 v -14.43554 z m 0,9.22265 4.51368,2.60547 v 14.4336 l 12.5,7.21679 v 5.21289 l -4.51368,2.60547 -12.5,-7.21679 -12.5,7.21679 -4.51367,-2.60547 v -5.21289 l 12.5,-7.21679 v -14.4336 z m 0,1.73243 -3.01367,1.73828 v 14.43359 l -12.5,7.21875 v 3.47852 l 3.01367,1.74023 12.5,-7.2168 12.5,7.2168 3.01563,-1.74023 v -3.47852 l -12.50195,-7.21875 v -14.43359 z" /><path
           id="path19"
           style="color:#000000;stroke-width:3;stroke-linecap:square;paint-order:stroke markers fill"
           d="m 766.62688,425.69727 -12.5,7.21679 v 14.43555 l -12.5,7.2168 V 469 l 12.5,7.2168 12.5,-7.2168 12.5,7.2168 12.5,-7.2168 v -14.43359 l -12.5,-7.2168 v -14.43555 z m 0,9.22265 4.51368,2.60547 v 14.4336 l 12.5,7.21679 v 5.21289 l -4.51368,2.60547 -12.5,-7.21679 -12.5,7.21679 -4.51367,-2.60547 v -5.21289 l 12.5,-7.21679 v -14.4336 z m 0,1.73243 -3.01367,1.73828 v 14.43359 l -12.5,7.21875 v 3.47852 l 3.01367,1.74023 12.5,-7.2168 12.5,7.2168 3.01563,-1.74023 v -3.47852 l -12.50195,-7.21875 v -14.43359 z m 78,-10.95508 -12.5,7.21679 v 14.43555 l -12.5,7.2168 V 469 l 12.5,7.2168 12.5,-7.2168 12.5,7.2168 12.5,-7.2168 v -14.43359 l -12.5,-7.2168 v -14.43555 z m 0,9.22265 4.51368,2.60547 v 14.4336 l 12.5,7.21679 v 5.21289 l -4.51368,2.60547 -12.5,-7.21679 -12.5,7.21679 -4.51367,-2.60547 v -5.21289 l 12.5,-7.21679 v -14.4336 z m 0,1.73243 -3.01367,1.73828 v 14.43359 l -12.5,7.21875 v 3.47852 l 3.01367,1.74023 12.5,-7.2168 12.5,7.2168 3.01563,-1.74023 v -3.47852 l -12.50195,-7.21875 v -14.43359 z m -39,56.59765 -12.5,7.21679 v 14.43555 l -12.5,7.2168 v 14.43359 l 12.5,7.2168 12.5,-7.2168 12.5,7.2168 12.5,-7.2168 v -14.43359 l -12.5,-7.2168 v -14.43555 z m 0,9.22265 4.51368,2.60547 v 14.4336 l 12.5,7.21679 v 5.21289 l -4.51368,2.60547 -12.5,-7.21679 -12.5,7.21679 -4.51367,-2.60547 v -5.21289 l 12.5,-7.21679 v -14.4336 z m 0,1.73243 -3.01367,1.73828 v 14.43359 l -12.5,7.21875 v 3.47852 l 3.01367,1.74023 12.5,-7.2168 12.5,7.2168 3.01563,-1.74023 v -3.47852 l -12.50195,-7.21875 v -14.43359 z" /></g></pattern><linearGradient
       id="swatch15"><stop
         style="stop-color:#7c6be0;stop-opacity:1;"
         offset="0"
         id="stop15" /></linearGradient><linearGradient
       id="linearGradient7"><stop
         style="stop-color:#ffffff;stop-opacity:1;"
         offset="0"
         id="stop8" /><stop
         style="stop-color:#e0e0e0;stop-opacity:0;"
         offset="1"
         id="stop9" /></linearGradient><radialGradient
       xlink:href="#linearGradient7"
       id="radialGradient9"
       cx="4037.3657"
       cy="472.92896"
       fx="4037.3657"
       fy="472.92896"
       r="1861.2389"
       gradientTransform="matrix(1,0,0,0.19174934,0,382.24514)"
       gradientUnits="userSpaceOnUse" /><filter
       style="color-interpolation-filters:sRGB"
       id="filter21"
       x="-0.007128381"
       y="-0.037175517"
       width="1.0142567"
       height="1.074351"><feGaussianBlur
         stdDeviation="7.0980168"
         id="feGaussianBlur21" /></filter><linearGradient
       xlink:href="#linearGradient22"
       id="linearGradient23"
       x1="2160.3342"
       y1="469.51389"
       x2="5948.5488"
       y2="469.51389"
       gradientUnits="userSpaceOnUse" /><linearGradient
       xlink:href="#linearGradient31"
       id="linearGradient33"
       x1="2493.4756"
       y1="-544.18958"
       x2="5615.4077"
       y2="1483.2172"
       gradientUnits="userSpaceOnUse"
       spreadMethod="reflect" /><filter
       style="color-interpolation-filters:sRGB"
       id="filter33"
       x="-0.032420901"
       y="-0.021206815"
       width="1.0648418"
       height="1.0424136"><feGaussianBlur
         stdDeviation="1.7991282"
         id="feGaussianBlur33" /></filter><pattern
       xlink:href="#pattern25-8-7"
       preserveAspectRatio="xMidYMid"
       id="pattern21-5"
       patternTransform="matrix(0.6,0,0,0.6,946.66407,457.29883)" /><clipPath
       clipPathUnits="userSpaceOnUse"
       id="clipPath25-5"><rect
         style="fill:#ff0000;stroke:none;stroke-width:3;stroke-linecap:square;stroke-linejoin:miter;paint-order:stroke markers fill;stop-color:#000000"
         id="rect25-8-1"
         width="78"
         height="45.033199"
         x="763.61322"
         y="452.82422" /></clipPath><pattern
       patternUnits="userSpaceOnUse"
       width="78"
       height="45.033199"
       patternTransform="translate(946.66407,457.29883) scale(0.6)"
       preserveAspectRatio="xMidYMid"
       id="pattern25-8-7"
       style="fill:#000000"><g
         id="g13-1"
         transform="translate(-763.61322,-452.82422)"
         clip-path="url(#clipPath25-5)"><path
           id="path11-0-1"
           style="color:#000000;stroke-width:3;stroke-linecap:square;paint-order:stroke markers fill"
           d="m 805.62688,448.21094 -12.5,7.21679 v 14.43555 l -12.5,7.2168 v 14.43359 l 12.5,7.2168 12.5,-7.2168 12.5,7.2168 12.5,-7.2168 v -14.43359 l -12.5,-7.2168 v -14.43555 z m 0,9.22265 4.51368,2.60547 v 14.4336 l 12.5,7.21679 v 5.21289 l -4.51368,2.60547 -12.5,-7.21679 -12.5,7.21679 -4.51367,-2.60547 v -5.21289 l 12.5,-7.21679 v -14.4336 z m 0,1.73243 -3.01367,1.73828 v 14.43359 l -12.5,7.21875 v 3.47852 l 3.01367,1.74023 12.5,-7.2168 12.5,7.2168 3.01563,-1.74023 v -3.47852 l -12.50195,-7.21875 V 460.9043 Z" /><path
           id="path20-8-5"
           style="color:#000000;stroke-width:3;stroke-linecap:square;paint-order:stroke markers fill"
           d="m 805.62688,403.17774 -12.5,7.2168 v 14.43554 l -12.5,7.2168 v 14.43359 l 12.5,7.2168 12.5,-7.2168 12.5,7.2168 12.5,-7.2168 v -14.43359 l -12.5,-7.2168 v -14.43554 z m 0,9.22265 4.51368,2.60547 v 14.4336 l 12.5,7.21679 v 5.21289 l -4.51368,2.60547 -12.5,-7.21679 -12.5,7.21679 -4.51367,-2.60547 v -5.21289 l 12.5,-7.21679 v -14.4336 z m 0,1.73243 -3.01367,1.73828 v 14.43359 l -12.5,7.21875 v 3.47852 l 3.01367,1.74023 12.5,-7.2168 12.5,7.2168 3.01563,-1.74023 v -3.47852 l -12.50195,-7.21875 V 415.8711 Z m -39,56.59765 -12.5,7.2168 v 14.43554 l -12.5,7.2168 v 14.43359 l 12.5,7.2168 12.5,-7.2168 12.5,7.2168 12.5,-7.2168 v -14.43359 l -12.5,-7.2168 v -14.43554 z m 0,9.22265 4.51368,2.60547 v 14.4336 l 12.5,7.21679 v 5.21289 l -4.51368,2.60547 -12.5,-7.21679 -12.5,7.21679 -4.51367,-2.60547 v -5.21289 l 12.5,-7.21679 v -14.4336 z m 0,1.73243 -3.01367,1.73828 v 14.43359 l -12.5,7.21875 v 3.47852 l 3.01367,1.74023 12.5,-7.2168 12.5,7.2168 3.01563,-1.74023 v -3.47852 l -12.50195,-7.21875 v -14.43359 z m 78,-10.95508 -12.5,7.2168 v 14.43554 l -12.5,7.2168 v 14.43359 l 12.5,7.2168 12.5,-7.2168 12.5,7.2168 12.5,-7.2168 v -14.43359 l -12.5,-7.2168 v -14.43554 z m 0,9.22265 4.51368,2.60547 v 14.4336 l 12.5,7.21679 v 5.21289 l -4.51368,2.60547 -12.5,-7.21679 -12.5,7.21679 -4.51367,-2.60547 v -5.21289 l 12.5,-7.21679 v -14.4336 z m 0,1.73243 -3.01367,1.73828 v 14.43359 l -12.5,7.21875 v 3.47852 l 3.01367,1.74023 12.5,-7.2168 12.5,7.2168 3.01563,-1.74023 v -3.47852 l -12.50195,-7.21875 v -14.43359 z" /><path
           id="path19-2"
           style="color:#000000;stroke-width:3;stroke-linecap:square;paint-order:stroke markers fill"
           d="m 766.62688,425.69727 -12.5,7.21679 v 14.43555 l -12.5,7.2168 V 469 l 12.5,7.2168 12.5,-7.2168 12.5,7.2168 12.5,-7.2168 v -14.43359 l -12.5,-7.2168 v -14.43555 z m 0,9.22265 4.51368,2.60547 v 14.4336 l 12.5,7.21679 v 5.21289 l -4.51368,2.60547 -12.5,-7.21679 -12.5,7.21679 -4.51367,-2.60547 v -5.21289 l 12.5,-7.21679 v -14.4336 z m 0,1.73243 -3.01367,1.73828 v 14.43359 l -12.5,7.21875 v 3.47852 l 3.01367,1.74023 12.5,-7.2168 12.5,7.2168 3.01563,-1.74023 v -3.47852 l -12.50195,-7.21875 v -14.43359 z m 78,-10.95508 -12.5,7.21679 v 14.43555 l -12.5,7.2168 V 469 l 12.5,7.2168 12.5,-7.2168 12.5,7.2168 12.5,-7.2168 v -14.43359 l -12.5,-7.2168 v -14.43555 z m 0,9.22265 4.51368,2.60547 v 14.4336 l 12.5,7.21679 v 5.21289 l -4.51368,2.60547 -12.5,-7.21679 -12.5,7.21679 -4.51367,-2.60547 v -5.21289 l 12.5,-7.21679 v -14.4336 z m 0,1.73243 -3.01367,1.73828 v 14.43359 l -12.5,7.21875 v 3.47852 l 3.01367,1.74023 12.5,-7.2168 12.5,7.2168 3.01563,-1.74023 v -3.47852 l -12.50195,-7.21875 v -14.43359 z m -39,56.59765 -12.5,7.21679 v 14.43555 l -12.5,7.2168 v 14.43359 l 12.5,7.2168 12.5,-7.2168 12.5,7.2168 12.5,-7.2168 v -14.43359 l -12.5,-7.2168 v -14.43555 z m 0,9.22265 4.51368,2.60547 v 14.4336 l 12.5,7.21679 v 5.21289 l -4.51368,2.60547 -12.5,-7.21679 -12.5,7.21679 -4.51367,-2.60547 v -5.21289 l 12.5,-7.21679 v -14.4336 z m 0,1.73243 -3.01367,1.73828 v 14.43359 l -12.5,7.21875 v 3.47852 l 3.01367,1.74023 12.5,-7.2168 12.5,7.2168 3.01563,-1.74023 v -3.47852 l -12.50195,-7.21875 v -14.43359 z" /></g></pattern><radialGradient
       xlink:href="#linearGradient7"
       id="radialGradient9-4"
       cx="4037.3657"
       cy="472.92896"
       fx="4037.3657"
       fy="472.92896"
       r="1861.2389"
       gradientTransform="matrix(1,0,0,0.19174934,0,382.24514)"
       gradientUnits="userSpaceOnUse" /><filter
       style="color-interpolation-filters:sRGB"
       id="filter21-2"
       x="-0.0071410069"
       y="-0.037241364"
       width="1.0142819"
       height="1.0744827"><feGaussianBlur
         stdDeviation="7.0980168"
         id="feGaussianBlur21-3" /></filter><filter
       style="color-interpolation-filters:sRGB"
       id="filter33-2"
       x="-0.032420901"
       y="-0.021206815"
       width="1.0648418"
       height="1.0424136"><feGaussianBlur
         stdDeviation="1.7991282"
         id="feGaussianBlur33-2" /></filter><filter
       inkscape:collect="always"
       style="color-interpolation-filters:sRGB"
       id="filter7"
       x="-0.061272117"
       y="-0.040883547"
       width="1.1225442"
       height="1.0817671"><feGaussianBlur
         inkscape:collect="always"
         stdDeviation="7.1860684"
         id="feGaussianBlur7" /></filter><filter
       style="color-interpolation-filters:sRGB"
       id="filter1"
       inkscape:label="Brilho interno"
       x="-0.091669832"
       y="-0.061166287"
       width="1.1833397"
       height="1.1223326"><feGaussianBlur
         stdDeviation="20.97902097902098"
         id="feGaussianBlur1" /><feComposite
         id="feComposite1"
         operator="xor" /><feComposite
         id="feComposite2"
         operator="arithmetic"
         in="SourceGraphic"
         k1="2.3170731707317067" /></filter><linearGradient
       inkscape:collect="always"
       xlink:href="#linearGradient3"
       id="linearGradient4"
       x1="2512.6384"
       y1="230.51021"
       x2="2502.2356"
       y2="860.40485"
       gradientUnits="userSpaceOnUse" /></defs><g
     id="g2"
     transform="matrix(0.71925703,0.25120708,-0.25120708,0.71925703,3557.0455,-25.713114)"
     inkscape:label="logo"><g
       id="g1"
       style="display:inline"
       transform="matrix(1.2391675,-0.43279056,0.43279056,1.2391675,-5082.6531,1865.9626)"
       inkscape:label="text"><path
         style="font-weight:900;font-size:796.202px;font-family:Apercu;-inkscape-font-specification:'Apercu Heavy';fill:#4e37d5;stroke:#4e37d5;stroke-width:19.00000022;stroke-linejoin:round;paint-order:stroke fill markers;filter:url(#filter21);fill-opacity:1;stroke-dasharray:none"
         d="M 633.32176,637.94171 H 749.17538 V 394.57137 h 201.7719 V 637.94171 H 1066.4121 V 80.444785 H 950.94728 V 286.49316 H 749.17538 V 80.444785 H 633.32176 Z M 1165.5486,519.3667 c 0,39.6546 11.2743,70.75624 35.3781,92.52739 22.9375,21.38238 53.2616,31.87918 89.4172,31.87918 46.2637,0 83.9745,-15.16205 114.2986,-45.87492 l 8.1641,40.04336 h 92.1387 V 400.01415 c 0,-113.13222 -57.1493,-169.50394 -169.8928,-169.50394 -40.8209,0 -75.0327,10.10803 -102.6354,31.10164 -28.3802,20.99361 -45.8749,50.54017 -53.6503,89.80599 l 94.4712,20.99361 c 10.4968,-30.3241 31.4904,-45.48616 61.8145,-45.48616 40.0434,-0.38877 59.8707,15.9396 59.8707,48.98509 v 9.33049 h -57.1493 c -50.9289,0 -91.7498,12.44066 -123.2402,36.15566 -31.8792,24.49254 -48.9851,56.7605 -48.9851,97.97017 z m 114.6873,-1.55508 c 0,-28.38025 19.4385,-42.37599 58.3156,-42.37599 h 56.3717 c 0,20.99361 -8.553,38.09951 -24.8813,51.70648 -16.7172,13.60697 -35.3781,20.60484 -57.1493,20.60484 -20.9936,0 -32.6567,-13.60697 -32.6567,-29.93533 z m 329.2886,120.13009 h 110.0221 V 488.65383 c 0,-53.65033 7.7754,-94.47124 22.5487,-122.46271 v 0.38877 c 14.7732,-26.04763 32.6567,-39.6546 53.6503,-39.6546 26.8252,0 40.0433,15.16206 40.0433,45.87493 V 637.94171 H 1945.811 V 480.48965 c 0,-50.92894 7.3866,-89.41722 22.1599,-115.85361 13.9958,-24.88132 31.8792,-37.71075 53.6504,-37.71075 27.2139,0 40.0433,15.16206 40.0433,45.87493 v 265.14149 h 110.0221 V 356.86062 c 0,-39.26582 -10.4968,-69.97869 -32.6567,-92.91615 -21.7712,-22.15992 -51.7065,-33.43426 -89.806,-33.43426 -47.43,0 -86.3071,22.54869 -116.2424,69.97869 -20.2161,-46.65246 -61.8145,-70.36746 -109.6333,-69.97869 -39.6546,0 -74.6439,18.27221 -103.8017,52.87279 v -46.65247 h -110.0221 z m 689.2902,0 h 110.022 V 488.65383 c 0,-53.65033 7.7754,-94.47124 22.5487,-122.46271 v 0.38877 c 14.7733,-26.04763 32.6567,-39.6546 53.6503,-39.6546 26.8252,0 40.0434,15.16206 40.0434,45.87493 v 265.14149 h 110.0221 V 480.48965 c 0,-50.92894 7.3866,-89.41722 22.1599,-115.85361 13.9957,-24.88132 31.8792,-37.71075 53.6503,-37.71075 27.214,0 40.0434,15.16206 40.0434,45.87493 v 265.14149 h 110.022 V 356.86062 c 0,-39.26582 -10.4968,-69.97869 -32.6567,-92.91615 -21.7711,-22.15992 -51.7065,-33.43426 -89.806,-33.43426 -47.43,0 -86.307,22.54869 -116.2424,69.97869 -20.216,-46.65246 -61.8145,-70.36746 -109.6332,-69.97869 -39.6546,0 -74.644,18.27221 -103.8018,52.87279 v -46.65247 h -110.022 z m 840.5219,-407.4315 c -65.7022,0 -119.7413,27.6027 -149.2879,68.81238 -29.1578,40.04336 -43.931,88.63968 -43.931,138.01353 0,49.37386 14.7732,97.19263 43.931,138.01354 29.5466,41.20967 83.5857,68.42361 149.2879,68.42361 87.4734,0 149.6767,-41.20968 185.4436,-124.40657 l -90.1948,-33.04549 c -23.3262,40.8209 -53.6503,61.42574 -90.1948,61.42574 -24.8813,0 -45.4861,-7.77541 -60.2594,-23.715 -12.8294,-13.99574 -20.6048,-30.3241 -22.5487,-48.59632 h 265.1415 v -46.65246 c 0,-45.48615 -13.9957,-91.36107 -42.7648,-131.01566 -29.5465,-40.04337 -80.4754,-67.2573 -144.6226,-67.2573 z m -74.6439,154.73066 c 4.2765,-15.16205 11.6631,-27.99147 23.715,-39.26582 13.6069,-12.82943 30.3241,-19.04976 50.9289,-19.04976 37.7108,-0.38877 61.8145,19.04976 73.0889,58.31558 z M 3416.53,637.94171 h 110.0221 v -145.0114 c 0,-57.53804 9.3305,-98.74772 27.2139,-124.40657 v 0.38877 c 18.661,-25.65885 40.8209,-37.71074 68.8124,-38.09951 13.607,0 29.5466,4.66525 45.4862,14.77328 l 20.6048,-104.96804 c -21.7711,-6.99787 -40.4321,-10.10803 -55.5942,-10.10803 -39.6546,0 -78.5316,20.21606 -106.5231,52.87279 V 236.73053 H 3416.53 Z m 304.0186,-305.18486 h 48.9851 v 305.18486 h 110.0221 V 332.75685 h 81.253 v -96.02632 h -81.253 v -19.43852 c 0,-27.21394 11.6631,-40.82091 35.7669,-40.82091 13.2182,0 30.3241,5.05402 50.9289,13.60697 l 24.4926,-90.9723 c -22.9375,-12.440657 -49.7627,-18.660985 -80.4755,-18.660985 -87.0846,0 -140.735,48.207545 -140.735,143.845095 v 12.44065 h -48.9851 z m 248.4243,-96.02632 c 46.2637,119.35255 96.4151,249.97945 143.0676,369.332 l -69.2012,188.16493 h 108.0782 l 204.8821,-557.49693 h -111.1884 c -26.4364,75.03271 -52.8728,152.39805 -79.3092,227.43076 l -84.3632,-227.43076 z"
         id="text1"
         aria-label="Hammerfy"
         inkscape:label="purble blur" /><path
         style="font-weight:900;font-size:796.202px;font-family:Apercu;-inkscape-font-specification:'Apercu Heavy';fill:url(#linearGradient4);stroke-width:19.094;stroke-linejoin:round;paint-order:stroke fill markers;fill-opacity:1"
         d="M 633.32176,637.94171 H 749.17538 V 394.57137 h 201.7719 V 637.94171 H 1066.4121 V 80.444785 H 950.94728 V 286.49316 H 749.17538 V 80.444785 H 633.32176 Z M 1165.5486,519.3667 c 0,39.6546 11.2743,70.75624 35.3781,92.52739 22.9375,21.38238 53.2616,31.87918 89.4172,31.87918 46.2637,0 83.9745,-15.16205 114.2986,-45.87492 l 8.1641,40.04336 h 92.1387 V 400.01415 c 0,-113.13222 -57.1493,-169.50394 -169.8928,-169.50394 -40.8209,0 -75.0327,10.10803 -102.6354,31.10164 -28.3802,20.99361 -45.8749,50.54017 -53.6503,89.80599 l 94.4712,20.99361 c 10.4968,-30.3241 31.4904,-45.48616 61.8145,-45.48616 40.0434,-0.38877 59.8707,15.9396 59.8707,48.98509 v 9.33049 h -57.1493 c -50.9289,0 -91.7498,12.44066 -123.2402,36.15566 -31.8792,24.49254 -48.9851,56.7605 -48.9851,97.97017 z m 114.6873,-1.55508 c 0,-28.38025 19.4385,-42.37599 58.3156,-42.37599 h 56.3717 c 0,20.99361 -8.553,38.09951 -24.8813,51.70648 -16.7172,13.60697 -35.3781,20.60484 -57.1493,20.60484 -20.9936,0 -32.6567,-13.60697 -32.6567,-29.93533 z m 329.2886,120.13009 h 110.0221 V 488.65383 c 0,-53.65033 7.7754,-94.47124 22.5487,-122.46271 v 0.38877 c 14.7732,-26.04763 32.6567,-39.6546 53.6503,-39.6546 26.8252,0 40.0433,15.16206 40.0433,45.87493 V 637.94171 H 1945.811 V 480.48965 c 0,-50.92894 7.3866,-89.41722 22.1599,-115.85361 13.9958,-24.88132 31.8792,-37.71075 53.6504,-37.71075 27.2139,0 40.0433,15.16206 40.0433,45.87493 v 265.14149 h 110.0221 V 356.86062 c 0,-39.26582 -10.4968,-69.97869 -32.6567,-92.91615 -21.7712,-22.15992 -51.7065,-33.43426 -89.806,-33.43426 -47.43,0 -86.3071,22.54869 -116.2424,69.97869 -20.2161,-46.65246 -61.8145,-70.36746 -109.6333,-69.97869 -39.6546,0 -74.6439,18.27221 -103.8017,52.87279 v -46.65247 h -110.0221 z m 689.2902,0 h 110.022 V 488.65383 c 0,-53.65033 7.7754,-94.47124 22.5487,-122.46271 v 0.38877 c 14.7733,-26.04763 32.6567,-39.6546 53.6503,-39.6546 26.8252,0 40.0434,15.16206 40.0434,45.87493 v 265.14149 h 110.0221 V 480.48965 c 0,-50.92894 7.3866,-89.41722 22.1599,-115.85361 13.9957,-24.88132 31.8792,-37.71075 53.6503,-37.71075 27.214,0 40.0434,15.16206 40.0434,45.87493 v 265.14149 h 110.022 V 356.86062 c 0,-39.26582 -10.4968,-69.97869 -32.6567,-92.91615 -21.7711,-22.15992 -51.7065,-33.43426 -89.806,-33.43426 -47.43,0 -86.307,22.54869 -116.2424,69.97869 -20.216,-46.65246 -61.8145,-70.36746 -109.6332,-69.97869 -39.6546,0 -74.644,18.27221 -103.8018,52.87279 v -46.65247 h -110.022 z m 840.5219,-407.4315 c -65.7022,0 -119.7413,27.6027 -149.2879,68.81238 -29.1578,40.04336 -43.931,88.63968 -43.931,138.01353 0,49.37386 14.7732,97.19263 43.931,138.01354 29.5466,41.20967 83.5857,68.42361 149.2879,68.42361 87.4734,0 149.6767,-41.20968 185.4436,-124.40657 l -90.1948,-33.04549 c -23.3262,40.8209 -53.6503,61.42574 -90.1948,61.42574 -24.8813,0 -45.4861,-7.77541 -60.2594,-23.715 -12.8294,-13.99574 -20.6048,-30.3241 -22.5487,-48.59632 h 265.1415 v -46.65246 c 0,-45.48615 -13.9957,-91.36107 -42.7648,-131.01566 -29.5465,-40.04337 -80.4754,-67.2573 -144.6226,-67.2573 z m -74.6439,154.73066 c 4.2765,-15.16205 11.6631,-27.99147 23.715,-39.26582 13.6069,-12.82943 30.3241,-19.04976 50.9289,-19.04976 37.7108,-0.38877 61.8145,19.04976 73.0889,58.31558 z M 3416.53,637.94171 h 110.0221 v -145.0114 c 0,-57.53804 9.3305,-98.74772 27.2139,-124.40657 v 0.38877 c 18.661,-25.65885 40.8209,-37.71074 68.8124,-38.09951 13.607,0 29.5466,4.66525 45.4862,14.77328 l 20.6048,-104.96804 c -21.7711,-6.99787 -40.4321,-10.10803 -55.5942,-10.10803 -39.6546,0 -78.5316,20.21606 -106.5231,52.87279 V 236.73053 H 3416.53 Z m 304.0186,-305.18486 h 48.9851 v 305.18486 h 110.0221 V 332.75685 h 81.253 v -96.02632 h -81.253 v -19.43852 c 0,-27.21394 11.6631,-40.82091 35.7669,-40.82091 13.2182,0 30.3241,5.05402 50.9289,13.60697 l 24.4926,-90.9723 c -22.9375,-12.440657 -49.7627,-18.660985 -80.4755,-18.660985 -87.0846,0 -140.735,48.207545 -140.735,143.845095 v 12.44065 h -48.9851 z m 248.4243,-96.02632 c 46.2637,119.35255 96.4151,249.97945 143.0676,369.332 l -69.2012,188.16493 h 108.0782 l 204.8821,-557.49693 h -111.1884 c -26.4364,75.03271 -52.8728,152.39805 -79.3092,227.43076 l -84.3632,-227.43076 z"
         id="text1-7"
         aria-label="Hammerfy"
         inkscape:label="Hammerfy" /></g><g
       id="layer1"
       inkscape:label="Icon"
       style="display:inline"><path
         id="rect2-8"
         style="display:inline;mix-blend-mode:normal;fill:#4e37d5;fill-opacity:1;stroke:#4e37d5;stroke-width:32.81428615;stroke-linejoin:round;stroke-dasharray:none;stroke-opacity:1;paint-order:fill markers stroke;filter:url(#filter7)"
         d="m 178.49807,51.015623 c -11.49102,0 -20.74219,9.25118 -20.74219,20.742189 V 290.38867 c 0,11.49102 9.25117,20.74219 20.74219,20.74219 h 220.67968 v 293.95703 h -0.0801 c -5.76522,0 -10.40625,4.64103 -10.40625,10.40625 v 248.27344 c 0,5.76522 4.64103,10.4082 10.40625,10.4082 h 66.5664 c 5.76522,0 10.40625,-4.64298 10.40625,-10.4082 V 615.49414 c 0,-5.76522 -4.64103,-10.40625 -10.40625,-10.40625 h -0.0801 V 311.13086 h 220.67969 c 11.49102,0 20.74219,-9.25117 20.74219,-20.74219 V 71.757812 c 0,-11.49101 -9.25117,-20.742189 -20.74219,-20.742189 z"
         inkscape:label="blur" /><path
         id="rect2-8-1"
         style="display:inline;fill:#ffffff;fill-opacity:1;stroke:#ffffff;stroke-width:14;stroke-linejoin:round;stroke-dasharray:none;stroke-opacity:1;paint-order:fill markers stroke"
         d="m 178.49807,51.015601 c -11.49102,0 -20.74219,9.25118 -20.74219,20.74219 V 290.38865 c 0,11.49102 9.25117,20.74219 20.74219,20.74219 h 220.67968 v 293.95703 h -0.0801 c -5.76522,0 -10.40625,4.64103 -10.40625,10.40625 V 863.7676 c 0,5.7652 4.64103,10.4082 10.40625,10.4082 h 66.5664 c 5.76522,0 10.40625,-4.643 10.40625,-10.4082 V 615.49412 c 0,-5.76522 -4.64103,-10.40625 -10.40625,-10.40625 h -0.0801 V 311.13084 h 220.67969 c 11.49102,0 20.74219,-9.25117 20.74219,-20.74219 V 71.757791 c 0,-11.49101 -9.25117,-20.74219 -20.74219,-20.74219 z"
         inkscape:label="white border" /><path
         id="rect2-6"
         style="display:inline;fill:#241790;fill-opacity:1;stroke:#360ebf;stroke-width:4;stroke-linejoin:round;stroke-dasharray:none;stroke-opacity:1;paint-order:fill markers stroke"
         d="m 178.49805,51.015622 c -11.49102,0 -20.74219,9.25118 -20.74219,20.74219 V 290.38867 c 0,11.49102 9.25117,20.74219 20.74219,20.74219 h 220.67968 v 293.95703 h -0.0801 c -5.76522,0 -10.40625,4.64103 -10.40625,10.40625 v 248.27344 c 0,5.76522 4.64103,10.4082 10.40625,10.4082 h 66.5664 c 5.76522,0 10.40625,-4.64298 10.40625,-10.4082 V 615.49414 c 0,-5.76522 -4.64103,-10.40625 -10.40625,-10.40625 h -0.0801 V 311.13086 h 220.67969 c 11.49102,0 20.74219,-9.25117 20.74219,-20.74219 V 71.757812 c 0,-11.49101 -9.25117,-20.74219 -20.74219,-20.74219 z"
         inkscape:label="color" /><path
         id="rect2-6-8"
         style="display:inline;fill:#7c6be0;fill-opacity:1;stroke:none;stroke-width:4;stroke-linejoin:round;stroke-dasharray:none;stroke-opacity:1;paint-order:fill markers stroke;filter:url(#filter1)"
         d="m 178.49805,51.015621 c -11.49102,0 -20.74219,9.25118 -20.74219,20.74219 V 290.38867 c 0,11.49102 9.25117,20.74219 20.74219,20.74219 h 220.67968 v 293.95703 h -0.0801 c -5.76522,0 -10.40625,4.64103 -10.40625,10.40625 v 248.27344 c 0,5.76522 4.64103,10.4082 10.40625,10.4082 h 66.5664 c 5.76522,0 10.40625,-4.64298 10.40625,-10.4082 V 615.49414 c 0,-5.76522 -4.64103,-10.40625 -10.40625,-10.40625 h -0.0801 V 311.13086 h 220.67969 c 11.49102,0 20.74219,-9.25117 20.74219,-20.74219 V 71.757811 c 0,-11.49101 -9.25117,-20.74219 -20.74219,-20.74219 z"
         inkscape:label="glow" /><path
         id="rect2"
         style="display:inline;fill:none;fill-opacity:1;stroke:#360ebf;stroke-width:4;stroke-linejoin:miter;stroke-dasharray:none;stroke-opacity:1;paint-order:normal"
         d="m 178.49805,51.015625 c -11.49102,0 -20.74219,9.251174 -20.74219,20.742187 V 290.38867 c 0,11.49102 9.25117,20.74219 20.74219,20.74219 h 220.67968 v 293.95703 h -0.0801 c -5.76522,0 -10.40625,4.64103 -10.40625,10.40625 v 248.27344 c 0,5.76522 4.64103,10.4082 10.40625,10.4082 h 66.5664 c 5.76522,0 10.40625,-4.64298 10.40625,-10.4082 V 615.49414 c 0,-5.76522 -4.64103,-10.40625 -10.40625,-10.40625 h -0.0801 V 311.13086 h 220.67969 c 11.49102,0 20.74219,-9.25117 20.74219,-20.74219 V 71.757812 c 0,-11.491013 -9.25117,-20.742187 -20.74219,-20.742187 z"
         inkscape:label="purble border" /></g></g></svg>
